<?xml version="1.0" encoding="utf-8"?>
<!-- Generator: Adobe Illustrator 15.1.0, SVG Export Plug-In . SVG Version: 6.00 Build 0)  -->
<!DOCTYPE svg PUBLIC "-//W3C//DTD SVG 1.1//EN" "http://www.w3.org/Graphics/SVG/1.1/DTD/svg11.dtd">
<svg version="1.1" id="zulu-shirts.de" xmlns="http://www.w3.org/2000/svg" xmlns:xlink="http://www.w3.org/1999/xlink" x="0px"
	 y="0px" width="779px" height="599px" viewBox="0 0 779 599" enable-background="new 0 0 779 599" xml:space="preserve">
<g id="Ebene_26">
	<path fill="#D8B78B" d="M516.181,294.615c1.019,7.338,2.47,32.223,10.899,36.276c27.293,13.123,36.868-48.519,39.897-63.367
		c3.017-14.772-1.167-49.536-23.584-41.179c-0.736,0.273-1.267,0.613-1.646,0.989c-9.781-4.218-21.011-3.134-24.581,8.825
		C511.88,253.882,513.687,276.681,516.181,294.615z"/>
	<path fill="#D8B78B" d="M261.537,236.158c-3.571-11.959-14.8-13.043-24.582-8.824c-0.378-0.376-0.908-0.717-1.639-0.989
		c-22.418-8.357-26.605,26.406-23.59,41.179c3.031,14.848,12.604,76.49,39.899,63.367c8.428-4.053,9.881-28.939,10.897-36.276
		C265.018,276.681,266.824,253.882,261.537,236.158z"/>
	<path fill="#7F512E" stroke="#000000" stroke-width="4.252" stroke-miterlimit="10" d="M541.245,262.227
		c0-81.175-67.833-146.979-151.51-146.979c-83.67,0-151.503,59.629-151.503,146.979c0,163.113,67.833,146.978,151.503,146.978
		C473.412,409.205,541.245,425.338,541.245,262.227z"/>
	<path fill="#D8B78B" stroke="#000000" stroke-width="4.252" stroke-miterlimit="10" d="M264.956,312.851
		c0,75.447,56.105,136.605,125.313,136.605c69.199,0,125.305-61.158,125.305-136.605c0-75.448-0.664-170.838-125.849-141.135
		C247.935,142.013,264.956,237.404,264.956,312.851z"/>
	
		<ellipse fill="#FFFFFF" stroke="#000000" stroke-width="4.252" stroke-miterlimit="10" cx="328.931" cy="272.146" rx="35.45" ry="45.351"/>
	
		<ellipse fill="#FFFFFF" stroke="#000000" stroke-width="4.252" stroke-miterlimit="10" cx="451.145" cy="272.146" rx="35.448" ry="45.351"/>
	<path d="M316.953,287.884c0,12.346,6.403,22.352,14.302,22.352c7.903,0,14.307-10.006,14.307-22.352
		c0-12.342-6.403-22.351-14.307-22.351C323.356,265.534,316.953,275.542,316.953,287.884z"/>
	<path d="M433.851,287.884c0,12.346,6.402,22.352,14.308,22.352c7.9,0,14.307-10.006,14.307-22.352
		c0-12.342-6.405-22.351-14.307-22.351C440.253,265.534,433.851,275.542,433.851,287.884z"/>
	
		<ellipse fill="#D8B78B" stroke="#000000" stroke-width="4.252" stroke-miterlimit="10" cx="389.742" cy="390.588" rx="155.271" ry="93.163"/>
	<path fill="#FFFFFF" d="M239.482,391.23c14.691,11.512,77.205,56.533,156.008,56.541c0.005,0,0.016,0,0.016,0
		c51.565,0,100.214-19.02,144.681-56.553c-44.439-20.979-93.102-31.611-144.697-31.611
		C317.269,359.607,255.196,384.363,239.482,391.23z"/>
	<path fill="none" stroke="#000000" stroke-width="4.252" stroke-linejoin="bevel" stroke-miterlimit="10" d="M234.469,390.588
		c0,0,155.272,134.641,310.542,0C389.742,314.904,234.469,390.588,234.469,390.588"/>
	<g>
		<path fill="none" stroke="#000000" stroke-width="4.252" stroke-miterlimit="10" d="M234.469,390.588
			c0,0,155.256,37.021,310.512,0"/>
		
			<line fill="none" stroke="#000000" stroke-width="4.252" stroke-miterlimit="10" x1="265.781" y1="378.369" x2="265.781" y2="414.011"/>
		
			<line fill="none" stroke="#000000" stroke-width="4.252" stroke-miterlimit="10" x1="307.098" y1="368.138" x2="307.098" y2="430.256"/>
		
			<line fill="none" stroke="#000000" stroke-width="4.252" stroke-miterlimit="10" x1="345.55" y1="360.894" x2="345.55" y2="443.068"/>
		
			<line fill="none" stroke="#000000" stroke-width="4.252" stroke-miterlimit="10" x1="515.574" y1="378.369" x2="515.574" y2="414.011"/>
		
			<line fill="none" stroke="#000000" stroke-width="4.252" stroke-miterlimit="10" x1="474.254" y1="365.662" x2="474.254" y2="435.312"/>
		
			<line fill="none" stroke="#000000" stroke-width="4.252" stroke-miterlimit="10" x1="435.801" y1="360.894" x2="435.801" y2="446.666"/>
		
			<line fill="none" stroke="#000000" stroke-width="4.252" stroke-miterlimit="10" x1="389.725" y1="357.002" x2="389.725" y2="450.427"/>
	</g>
	<path d="M243.078,328.064c-0.021,0.002-2.501,0.576-5.999-1.566c-5.444-3.332-12.989-12.82-18.064-39.301
		c-2.974-11.055-4.525-20.007-5.069-27.254c-0.109-1.45-0.182-2.83-0.213-4.146c-0.327-13.165,3.025-19.83,6.709-23.193
		c5.869-5.357,14.467-4.126,18.453-3.146c1.329,0.323,2.149,0.623,2.18,0.635l1.863-4.979c-0.644-0.237-15.796-5.771-26.044,3.537
		c-8.936,8.113-10.814,24.603-5.656,48.95c0.731,3.464,1.609,7.088,2.621,10.871c4.333,22.585,11.213,36.908,20.445,42.56
		c3.223,1.975,6.024,2.416,7.888,2.416c1.323,0,2.179-0.223,2.371-0.279L243.078,328.064z"/>
	<path d="M562.112,228.65c-10.244-9.307-25.401-3.774-26.046-3.537l1.863,4.979c0.125-0.052,12.813-4.626,20.632,2.512
		c0.368,0.334,0.731,0.706,1.096,1.11c5.018,5.674,8.713,18.456,1.921,47.214c-0.479,2.011-1.009,4.097-1.589,6.269l0,0
		c-0.017,0.067-0.031,0.125-0.047,0.192c-4.962,25.937-12.382,35.492-17.735,38.937c-3.64,2.34-6.233,1.75-6.28,1.738l-1.483,5.102
		c0.196,0.057,1.048,0.279,2.372,0.279c1.863,0,4.67-0.443,7.893-2.416c9.242-5.662,16.123-20.01,20.409-42.454
		C573.319,258.072,572.309,237.91,562.112,228.65z"/>
	<path d="M489.659,226.439c-0.142,2.987-2.845-2.387-4.696-4.097c-3.146-2.898-7.52-5.249-11.919-7.34
		c-11.105-5.272-24.54-7.268-37.107-7.53c-2.595-0.054-3.146-16.239,2.573-16.117c27.782,0.573,58.296,12.39,57.396,31.69
		c-0.123,2.717-0.248,7.775-3.6,9.59C489.8,233.997,489.639,226.781,489.659,226.439L489.659,226.439z"/>
	<path d="M291.545,226.439c0.141,2.987,2.839-2.387,4.696-4.097c3.146-2.898,7.515-5.249,11.92-7.34
		c11.104-5.272,24.535-7.268,37.107-7.53c2.589-0.054,3.14-16.239-2.574-16.117c-27.782,0.573-58.299,12.39-57.402,31.69
		c0.13,2.717,0.254,7.775,3.602,9.59C291.405,233.997,291.561,226.781,291.545,226.439L291.545,226.439z"/>
</g>
</svg>
