<?xml version="1.0" encoding="utf-8"?>
<!-- Generator: Adobe Illustrator 15.1.0, SVG Export Plug-In . SVG Version: 6.00 Build 0)  -->
<!DOCTYPE svg PUBLIC "-//W3C//DTD SVG 1.1//EN" "http://www.w3.org/Graphics/SVG/1.1/DTD/svg11.dtd">
<svg version="1.1" id="www.zulu-shirts.de" xmlns="http://www.w3.org/2000/svg" xmlns:xlink="http://www.w3.org/1999/xlink" x="0px"
	 y="0px" width="779px" height="599px" viewBox="0 0 779 599" enable-background="new 0 0 779 599" xml:space="preserve">
<g>
	<g>
		<path fill="#D8B78B" d="M514.385,294.685c1.003,7.233,2.435,31.765,10.742,35.76c26.907,12.938,36.341-47.829,39.328-62.465
			c2.977-14.563-1.146-48.832-23.245-40.593c-0.727,0.269-1.248,0.604-1.626,0.974c-9.638-4.158-20.708-3.089-24.228,8.699
			C510.139,254.531,511.919,277.006,514.385,294.685z"/>
	</g>
	<g>
		<path fill="#D8B78B" d="M263.355,237.06c-3.514-11.788-14.589-12.857-24.232-8.699c-0.368-0.37-0.89-0.705-1.616-0.974
			c-22.099-8.239-26.227,26.029-23.255,40.593c2.987,14.636,12.43,75.402,39.337,62.465c8.308-3.995,9.735-28.526,10.743-35.76
			C266.788,277.006,268.568,254.531,263.355,237.06z"/>
	</g>
	<g>
		<path fill="#7F512E" d="M539.093,262.757c0-80.021-66.869-144.89-149.361-144.89c-82.481,0-149.351,58.781-149.351,144.89
			c0,160.794,66.869,144.887,149.351,144.887C472.224,407.644,539.093,423.551,539.093,262.757z"/>
		<path d="M429.1,410.698L429.1,410.698c-6.158,0-12.471-0.105-18.911-0.213c-13.387-0.22-27.542-0.22-40.908,0
			c-6.44,0.107-12.753,0.213-18.912,0.213c-63.8,0-112.606-10.894-112.606-147.941c0-84.093,65.334-147.509,151.97-147.509
			c83.801,0,151.98,66.174,151.98,147.509c0,63.381-10.165,103.054-31.992,124.853C490.47,406.833,464.596,410.698,429.1,410.698z
			 M389.732,405.024c6.967,0,13.827,0.113,20.544,0.226c6.41,0.104,12.696,0.21,18.824,0.21c34.161,0,58.945-3.606,76.916-21.557
			c20.779-20.753,30.458-59.249,30.458-121.146c0-78.448-65.826-142.271-146.742-142.271C306.079,120.486,243,181.649,243,262.757
			c0,132.467,44.5,142.703,107.368,142.703c6.128,0,12.41-0.105,18.825-0.21C375.905,405.138,382.765,405.024,389.732,405.024z"/>
	</g>
	<g>
		<path fill="#D8B78B" d="M266.726,312.663c0,74.373,55.308,134.664,123.533,134.664c68.214,0,123.522-60.291,123.522-134.664
			c0-74.376-0.655-168.41-124.06-139.13C249.947,144.253,266.726,238.287,266.726,312.663z"/>
		<path d="M390.259,450.474c-69.851,0-126.679-61.82-126.679-137.811c0-7.128-0.153-14.436-0.312-21.799
			c-0.854-40.287-1.734-81.947,21.899-106.085c19.873-20.298,53.794-24.98,104.514-14.469c15.3-3.588,29.337-5.407,41.726-5.407
			c85.52,0,85.52,85.402,85.52,147.76C516.927,388.653,460.104,450.474,390.259,450.474z M343.299,171.198
			c-24.242,0-41.788,5.883-53.636,17.986c-21.781,22.244-20.927,62.559-20.104,101.546c0.159,7.407,0.312,14.761,0.312,21.933
			c0,72.52,54.004,131.518,120.387,131.518c66.373,0,120.376-58.998,120.376-131.518c0-63.027,0-141.465-79.228-141.465
			c-12.083,0-25.863,1.816-40.959,5.396l-0.686,0.164l-0.686-0.146C371.92,173.02,356.522,171.198,343.299,171.198z"/>
	</g>
	<g>
		<path fill="#D8B78B" d="M542.807,389.292c0,50.723-68.537,91.841-153.069,91.841c-84.533,0-153.064-41.118-153.064-91.841
			c0-50.719,68.532-91.837,153.064-91.837C474.27,297.455,542.807,338.573,542.807,389.292z"/>
		<path d="M389.737,483.752c-85.842,0-155.684-42.374-155.684-94.46c0-52.082,69.841-94.456,155.684-94.456
			c85.847,0,155.688,42.374,155.688,94.456C545.426,441.378,475.584,483.752,389.737,483.752z M389.737,300.074
			c-82.958,0-150.445,40.023-150.445,89.218c0,49.198,67.488,89.222,150.445,89.222c82.957,0,150.45-40.023,150.45-89.222
			C540.188,340.098,472.694,300.074,389.737,300.074z"/>
	</g>
	<g>
		<path d="M245.159,327.659c-0.021,0.003-2.465,0.567-5.913-1.545c-5.366-3.284-12.799-12.638-17.802-38.742
			c-2.937-10.898-4.461-19.722-5.003-26.866c-0.107-1.43-0.174-2.79-0.21-4.087c-0.322-12.978,2.982-19.549,6.614-22.863
			c5.791-5.282,14.262-4.067,18.19-3.103c1.31,0.319,2.118,0.613,2.148,0.627l1.836-4.909c-0.634-0.235-15.566-5.69-25.674,3.486
			c-8.809,7.998-10.661,24.253-5.576,48.254c0.721,3.415,1.586,6.988,2.588,10.717c4.266,22.266,11.049,36.384,20.15,41.955
			c3.177,1.946,5.939,2.381,7.78,2.381c1.299,0,2.144-0.22,2.333-0.276L245.159,327.659z"/>
	</g>
	<g>
		<path d="M559.656,229.657c-10.098-9.174-25.035-3.722-25.669-3.486l1.831,4.909c0.123-0.052,12.636-4.561,20.339,2.476
			c0.368,0.33,0.727,0.695,1.085,1.095c4.941,5.594,8.584,18.193,1.893,46.543c-0.471,1.982-0.992,4.038-1.565,6.179l0,0
			c-0.021,0.067-0.03,0.123-0.051,0.189c-4.891,25.57-12.206,34.987-17.485,38.384c-3.58,2.308-6.138,1.727-6.189,1.714
			l-1.463,5.028c0.194,0.057,1.033,0.276,2.343,0.276c1.831,0,4.604-0.438,7.775-2.381c9.116-5.581,15.899-19.726,20.124-41.85
			C570.706,258.662,569.714,238.786,559.656,229.657z"/>
	</g>
	<g>
		<path d="M292.938,227.479c0.138,2.943,2.803-2.354,4.629-4.039c3.1-2.856,7.413-5.174,11.75-7.235
			c10.947-5.197,24.186-7.164,36.581-7.423c2.553-0.054,3.095-16.009-2.538-15.889c-27.388,0.565-57.472,12.213-56.582,31.24
			c0.123,2.678,0.245,7.665,3.55,9.453C292.799,234.929,292.958,227.816,292.938,227.479L292.938,227.479z"/>
	</g>
	<g>
		<path d="M488.234,227.479c-0.138,2.943-2.803-2.354-4.629-4.039c-3.101-2.856-7.412-5.174-11.75-7.235
			c-10.947-5.197-24.187-7.164-36.581-7.423c-2.553-0.054-3.095-16.009,2.537-15.889c27.389,0.565,57.473,12.213,56.582,31.24
			c-0.123,2.678-0.245,7.665-3.55,9.453C488.373,234.929,488.214,227.816,488.234,227.479L488.234,227.479z"/>
	</g>
	<g>
		<path d="M383.583,416.737c-45.763,0-97.106-10.224-148.259-40.914l2.696-4.491c149.978,89.988,301.916,0.911,303.44,0l2.69,4.491
			C543.129,376.44,474.393,416.737,383.583,416.737z"/>
	</g>
	<g>
		<path fill="#CC0033" d="M464.09,232.295c-5.771-1.551-11.939,1.074-16.764,6.351c-4.823-5.276-10.993-7.901-16.769-6.356
			c-9.647,2.586-14.491,15.792-10.823,29.491c3.447,12.875,17.448,37.468,27.127,38.223c0.153,0.015,0.307,0.007,0.465,0.007
			c0.148,0,0.308,0.008,0.455-0.007c9.689-0.755,23.68-25.348,27.138-38.223C478.587,248.081,473.742,234.881,464.09,232.295z"/>
		<path d="M447.557,301.867l-0.88-0.018c-11.51-0.898-25.618-27.938-28.733-39.589c-3.929-14.669,1.514-28.918,12.133-31.765
			c5.709-1.512,12.047,0.53,17.249,5.497c5.208-4.965,11.541-7.016,17.244-5.491c10.62,2.847,16.068,17.093,12.14,31.759
			c-3.126,11.653-17.25,38.693-28.785,39.591L447.557,301.867z M447.557,298.156v1.856l0.046-1.856
			c8.246-0.645,21.925-23.462,25.526-36.857c3.396-12.688-0.875-24.896-9.52-27.211c-4.87-1.31-10.4,0.869-14.912,5.811
			l-1.371,1.496l-1.371-1.496c-4.512-4.934-10.046-7.133-14.916-5.816c-8.646,2.317-12.911,14.525-9.515,27.217
			c3.591,13.396,17.259,36.213,25.479,36.854l0.435,1.856L447.557,298.156z"/>
	</g>
	<g>
		<path fill="#CC0033" d="M348.85,232.295c-5.771-1.551-11.939,1.074-16.764,6.351c-4.824-5.276-10.993-7.901-16.768-6.356
			c-9.648,2.586-14.492,15.792-10.824,29.491c3.448,12.875,17.449,37.468,27.127,38.223c0.153,0.015,0.307,0.007,0.465,0.007
			c0.148,0,0.307,0.008,0.456-0.007c9.688-0.755,23.679-25.348,27.137-38.223C363.347,248.081,358.502,234.881,348.85,232.295z"/>
		<path d="M332.316,301.867l-0.88-0.018c-11.51-0.898-25.618-27.938-28.733-39.589c-3.929-14.669,1.514-28.918,12.134-31.765
			c5.714-1.512,12.047,0.53,17.249,5.497c5.208-4.965,11.551-7.016,17.244-5.491c10.62,2.847,16.068,17.093,12.139,31.759
			c-3.125,11.653-17.249,38.693-28.785,39.591L332.316,301.867z M332.316,298.156v1.856l0.046-1.856
			c8.246-0.645,21.925-23.462,25.526-36.857c3.397-12.688-0.875-24.896-9.52-27.211c-4.87-1.31-10.395,0.869-14.912,5.811
			l-1.371,1.496l-1.371-1.496c-4.512-4.934-10.052-7.133-14.917-5.816c-8.645,2.317-12.911,14.525-9.515,27.217
			c3.591,13.396,17.26,36.213,25.48,36.854l0.435,1.856L332.316,298.156z"/>
	</g>
</g>
</svg>
